<?xml version="1.0" encoding="UTF-8" standalone="no" ?>
<COLLADA version="1.4.1" xmlns="http://www.collada.org/2005/11/COLLADASchema">

  <asset>
    <contributor>
      <authoring_tool>ONSHAPE BY PTC INC, 1.195</authoring_tool>
    </contributor>
    <created>2025-03-18T01:57:54</created>
    <modified>2025-03-18T01:57:54</modified>
    <unit meter="1" name="meters"/>
    <up_axis>Z_UP</up_axis>
  </asset>

  <library_materials>
    <material id="ID9" name="ID9">
      <instance_effect url="#ID9-fx"/>
    </material>
  </library_materials>

  <library_effects>
    <effect id="ID9-fx" name="ID9">
      <profile_COMMON>
        <technique sid="COMMON">
          <lambert>
            <diffuse>
              <color sid="diffuse">0.647059 0.647059 0.647059 1</color>
            </diffuse>
            <transparent opaque="A_ONE">
              <color sid="transparent">1 1 1 1</color>
            </transparent>
            <transparency>
              <float sid="transparency">1</float>
            </transparency>
          </lambert>
        </technique>
        <extra>
          <technique profile="OTHER">
            <double_sided>1</double_sided>
          </technique>
        </extra>
      </profile_COMMON>
    </effect>
  </library_effects>

  <library_geometries>
    <geometry id="ID3">
      <mesh>
        <source id="ID4">
          <float_array count="2460" id="ID5">-0.00475451 0.0022806 0.008 -0.0075 -0.00075 0.008 -0.002 0.0025 0.008 0.002 0.004 0.008 0.0075 0.00725 0.008 0.0015 0.004 0.008 -0.0075 0.00725 0.008 0.00405418 0.0035747 0.008 0.00401364 0.00341459 0.008 0.0075 -0.00075 0.008 0.002 0.0025 0.008 0.0015 0.0025 0.008 0.00598636 0.00308541 0.008 0.006 0.00325 0.008 -0.0015 0.0025 0.008 0.00475451 0.0022806 0.008 0.00421086 0.00263579 0.008 0.00432272 0.00251428 0.008 0.00587947 0.00277405 0.008 0.00594582 0.0029253 0.008 0.00567728 0.00251428 0.008 0.00578914 0.00263579 0.008 0.0054017 0.00233423 0.008 0.00554695 0.00241283 0.008 0.00508258 0.00225342 0.008 0.00524549 0.0022806 0.008 0.00491742 0.00225342 0.008 0.00445305 0.00241283 0.008 0.0045983 0.00233423 0.008 0.00412053 0.00277405 0.008 0.00405418 0.0029253 0.008 0.00401364 0.00308541 0.008 0.004 0.00325 0.008 0.0045983 0.00416577 0.008 0.00445305 0.00408717 0.008 0.00421086 0.00386421 0.008 0.00412053 0.00372595 0.008 0.00432272 0.00398572 0.008 0.00475451 0.0042194 0.008 0.00508258 0.00424658 0.008 0.00491742 0.00424658 0.008 0.0054017 0.00416577 0.008 0.00524549 0.0042194 0.008 0.00567728 0.00398572 0.008 0.00554695 0.00408717 0.008 0.00587947 0.00372595 0.008 0.00578914 0.00386421 0.008 0.00598636 0.00341459 0.008 0.00594582 0.0035747 0.008 -0.00405418 0.0029253 0.008 -0.00401364 0.00308541 0.008 -0.0015 0.004 0.008 -0.006 0.00325 0.008 -0.00598636 0.00308541 0.008 -0.00412053 0.00277405 0.008 -0.00421086 0.00263579 0.008 -0.00432272 0.00251428 0.008 -0.00508258 0.00225342 0.008 -0.00491742 0.00225342 0.008 -0.0054017 0.00233423 0.008 -0.00524549 0.0022806 0.008 -0.00567728 0.00251428 0.008 -0.00554695 0.00241283 0.008 -0.00587947 0.00277405 0.008 -0.00578914 0.00263579 0.008 -0.00594582 0.0029253 0.008 -0.00594582 0.0035747 0.008 -0.00598636 0.00341459 0.008 -0.00578914 0.00386421 0.008 -0.00587947 0.00372595 0.008 -0.0045983 0.00416577 0.008 -0.002 0.004 0.008 -0.00475451 0.0042194 0.008 -0.00554695 0.00408717 0.008 -0.00567728 0.00398572 0.008 -0.00524549 0.0042194 0.008 -0.0054017 0.00416577 0.008 -0.00491742 0.00424658 0.008 -0.00508258 0.00424658 0.008 -0.00445305 0.00408717 0.008 -0.00421086 0.00386421 0.008 -0.00412053 0.00372595 0.008 -0.00405418 0.0035747 0.008 -0.00401364 0.00341459 0.008 -0.004 0.00325 0.008 -0.00432272 0.00398572 0.008 -0.0045983 0.00233423 0.008 -0.00445305 0.00241283 0.008 -0.0075 0.00725 0.0085 -0.0075 -0.00075 0.0085 -0.0075 -0.00075 0.008 -0.0075 0.00725 0.008 0.0075 -0.00075 0.008 -0.0075 -0.00075 0.0085 0.0075 -0.00075 0.0085 -0.0075 -0.00075 0.008 0.0075 -0.00075 0.008 0.0075 -0.00075 0.0085 0.0075 0.00725 0.0085 0.0075 0.00725 0.008 -0.00491742 0.00225342 0.008 -0.00508258 0.00225342 0.0085 -0.00508258 0.00225342 0.008 -0.004 0.00325 0.0085 -0.004 0.00325 0.008 -0.00401364 0.00341459 0.008 -0.00524549 0.0022806 0.008 -0.00524549 0.0022806 0.0085 -0.0054017 0.00233423 0.0085 -0.0054017 0.00233423 0.008 -0.00554695 0.00241283 0.0085 -0.00554695 0.00241283 0.008 -0.00567728 0.00251428 0.008 -0.00567728 0.00251428 0.0085 -0.00578914 0.00263579 0.0085 -0.00578914 0.00263579 0.008 -0.00587947 0.00277405 0.0085 -0.00587947 0.00277405 0.008 -0.00594582 0.0029253 0.008 -0.00594582 0.0029253 0.0085 -0.00598636 0.00308541 0.0085 -0.00598636 0.00308541 0.008 -0.006 0.00325 0.0085 -0.006 0.00325 0.008 -0.00491742 0.00225342 0.0085 -0.00475451 0.0022806 0.008 -0.00475451 0.0022806 0.0085 -0.0045983 0.00233423 0.008 -0.0045983 0.00233423 0.0085 -0.00445305 0.00241283 0.0085 -0.00445305 0.00241283 0.008 -0.00432272 0.00251428 0.008 -0.00432272 0.00251428 0.0085 -0.00421086 0.00263579 0.008 -0.00421086 0.00263579 0.0085 -0.00412053 0.00277405 0.0085 -0.00412053 0.00277405 0.008 -0.00405418 0.0029253 0.008 -0.00405418 0.0029253 0.0085 -0.00401364 0.00308541 0.008 -0.00401364 0.00308541 0.0085 -0.00405418 0.0035747 0.0085 -0.00401364 0.00341459 0.0085 -0.00405418 0.0035747 0.008 -0.00432272 0.00398572 0.0085 -0.00421086 0.00386421 0.0085 -0.00432272 0.00398572 0.008 -0.00412053 0.00372595 0.0085 -0.00412053 0.00372595 0.008 -0.00421086 0.00386421 0.008 -0.0045983 0.00416577 0.0085 -0.00475451 0.0042194 0.008 -0.00475451 0.0042194 0.0085 -0.00445305 0.00408717 0.008 -0.0045983 0.00416577 0.008 -0.00445305 0.00408717 0.0085 -0.00524549 0.0042194 0.008 -0.00524549 0.0042194 0.0085 -0.00508258 0.00424658 0.0085 -0.00508258 0.00424658 0.008 -0.00491742 0.00424658 0.0085 -0.00491742 0.00424658 0.008 -0.00567728 0.00398572 0.0085 -0.00554695 0.00408717 0.0085 -0.00567728 0.00398572 0.008 -0.0054017 0.00416577 0.0085 -0.0054017 0.00416577 0.008 -0.00554695 0.00408717 0.008 -0.00587947 0.00372595 0.008 -0.00578914 0.00386421 0.0085 -0.00578914 0.00386421 0.008 -0.00594582 0.0035747 0.008 -0.00587947 0.00372595 0.0085 -0.00594582 0.0035747 0.0085 -0.00598636 0.00341459 0.008 -0.00598636 0.00341459 0.0085 0.0075 0.00725 0.008 0.0075 0.00725 0.0085 -0.0075 0.00725 0.0085 -0.0075 0.00725 0.008 0.00508258 0.00225342 0.008 0.00491742 0.00225342 0.0085 0.00491742 0.00225342 0.008 0.006 0.00325 0.0085 0.006 0.00325 0.008 0.00598636 0.00341459 0.008 0.00475451 0.0022806 0.008 0.00475451 0.0022806 0.0085 0.0045983 0.00233423 0.0085 0.0045983 0.00233423 0.008 0.00445305 0.00241283 0.0085 0.00445305 0.00241283 0.008 0.00432272 0.00251428 0.008 0.00432272 0.00251428 0.0085 0.00421086 0.00263579 0.0085 0.00421086 0.00263579 0.008 0.00412053 0.00277405 0.0085 0.00412053 0.00277405 0.008 0.00405418 0.0029253 0.008 0.00405418 0.0029253 0.0085 0.00401364 0.00308541 0.0085 0.00401364 0.00308541 0.008 0.004 0.00325 0.0085 0.004 0.00325 0.008 0.00508258 0.00225342 0.0085 0.00524549 0.0022806 0.008 0.00524549 0.0022806 0.0085 0.0054017 0.00233423 0.008 0.0054017 0.00233423 0.0085 0.00554695 0.00241283 0.0085 0.00554695 0.00241283 0.008 0.00567728 0.00251428 0.008 0.00567728 0.00251428 0.0085 0.00578914 0.00263579 0.008 0.00578914 0.00263579 0.0085 0.00587947 0.00277405 0.0085 0.00587947 0.00277405 0.008 0.00594582 0.0029253 0.008 0.00594582 0.0029253 0.0085 0.00598636 0.00308541 0.008 0.00598636 0.00308541 0.0085 0.00594582 0.0035747 0.0085 0.00598636 0.00341459 0.0085 0.00594582 0.0035747 0.008 0.00567728 0.00398572 0.0085 0.00578914 0.00386421 0.0085 0.00567728 0.00398572 0.008 0.00587947 0.00372595 0.0085 0.00587947 0.00372595 0.008 0.00578914 0.00386421 0.008 0.0054017 0.00416577 0.0085 0.00524549 0.0042194 0.008 0.00524549 0.0042194 0.0085 0.00554695 0.00408717 0.008 0.0054017 0.00416577 0.008 0.00554695 0.00408717 0.0085 0.00475451 0.0042194 0.008 0.00475451 0.0042194 0.0085 0.00491742 0.00424658 0.0085 0.00491742 0.00424658 0.008 0.00508258 0.00424658 0.0085 0.00508258 0.00424658 0.008 0.00432272 0.00398572 0.0085 0.00445305 0.00408717 0.0085 0.00432272 0.00398572 0.008 0.0045983 0.00416577 0.0085 0.0045983 0.00416577 0.008 0.00445305 0.00408717 0.008 0.00412053 0.00372595 0.008 0.00421086 0.00386421 0.0085 0.00421086 0.00386421 0.008 0.00405418 0.0035747 0.008 0.00412053 0.00372595 0.0085 0.00405418 0.0035747 0.0085 0.00401364 0.00341459 0.008 0.00401364 0.00341459 0.0085 0.006 0.00325 0.0085 0.0075 0.00725 0.0085 0.0075 -0.00075 0.0085 -0.00412053 0.00277405 0.0085 -0.00405418 0.0029253 0.0085 0.00412053 0.00277405 0.0085 -0.00401364 0.00308541 0.0085 0.00405418 0.0029253 0.0085 0.00491742 0.00225342 0.0085 0.00508258 0.00225342 0.0085 0.00594582 0.0029253 0.0085 0.00598636 0.00308541 0.0085 0.00578914 0.00263579 0.0085 0.00587947 0.00277405 0.0085 0.00554695 0.00241283 0.0085 0.00567728 0.00251428 0.0085 0.00524549 0.0022806 0.0085 0.0054017 0.00233423 0.0085 0.0045983 0.00233423 0.0085 0.00475451 0.0022806 0.0085 -0.00421086 0.00263579 0.0085 0.00421086 0.00263579 0.0085 0.00432272 0.00251428 0.0085 -0.00445305 0.00241283 0.0085 -0.0045983 0.00233423 0.0085 -0.0075 0.00725 0.0085 -0.00524549 0.0042194 0.0085 -0.0054017 0.00416577 0.0085 0.00401364 0.00308541 0.0085 -0.004 0.00325 0.0085 0.004 0.00325 0.0085 0.00405418 0.0035747 0.0085 -0.00405418 0.0035747 0.0085 -0.00412053 0.00372595 0.0085 0.00401364 0.00341459 0.0085 -0.00401364 0.00341459 0.0085 -0.00445305 0.00408717 0.0085 0.00432272 0.00398572 0.0085 -0.00432272 0.00398572 0.0085 -0.00421086 0.00386421 0.0085 0.00421086 0.00386421 0.0085 0.00412053 0.00372595 0.0085 -0.0045983 0.00416577 0.0085 0.0045983 0.00416577 0.0085 0.00445305 0.00408717 0.0085 -0.00554695 0.00408717 0.0085 -0.00567728 0.00398572 0.0085 0.00475451 0.0042194 0.0085 0.00508258 0.00424658 0.0085 0.00491742 0.00424658 0.0085 0.0054017 0.00416577 0.0085 0.00524549 0.0042194 0.0085 0.00567728 0.00398572 0.0085 0.00554695 0.00408717 0.0085 0.00587947 0.00372595 0.0085 0.00578914 0.00386421 0.0085 0.00598636 0.00341459 0.0085 0.00594582 0.0035747 0.0085 -0.006 0.00325 0.0085 -0.00598636 0.00308541 0.0085 -0.0075 -0.00075 0.0085 -0.00432272 0.00251428 0.0085 0.00445305 0.00241283 0.0085 -0.00475451 0.0022806 0.0085 -0.00508258 0.00225342 0.0085 -0.00491742 0.00225342 0.0085 -0.0054017 0.00233423 0.0085 -0.00524549 0.0022806 0.0085 -0.00567728 0.00251428 0.0085 -0.00554695 0.00241283 0.0085 -0.00587947 0.00277405 0.0085 -0.00578914 0.00263579 0.0085 -0.00594582 0.0029253 0.0085 -0.00594582 0.0035747 0.0085 -0.00598636 0.00341459 0.0085 -0.00578914 0.00386421 0.0085 -0.00587947 0.00372595 0.0085 -0.00475451 0.0042194 0.0085 -0.00491742 0.00424658 0.0085 -0.00508258 0.00424658 0.0085 -0.002 0.0025 0.008 -0.0015 0.0025 0.008 -0.0015 0.0025 0.006 -0.002 0.0025 0.006 -0.002 0.00331193 0.00525256 -0.0015 0.00318807 0.00525256 -0.0015 0.00331193 0.00525256 -0.0015 0.00343411 0.00527295 -0.002 0.00343411 0.00527295 -0.0015 0.00355127 0.00531317 -0.002 0.00355127 0.00531317 -0.002 0.00366021 0.00537213 -0.0015 0.00366021 0.00537213 -0.0015 0.00375796 0.00544821 -0.002 0.00375796 0.00544821 -0.0015 0.00384186 0.00553934 -0.002 0.00384186 0.00553934 -0.002 0.00390961 0.00564304 -0.0015 0.00390961 0.00564304 -0.0015 0.00395936 0.00575648 -0.002 0.00395936 0.00575648 -0.0015 0.00398977 0.00587655 -0.002 0.00398977 0.00587655 -0.002 0.004 0.006 -0.0015 0.004 0.006 -0.002 0.00318807 0.00525256 -0.0015 0.00306589 0.00527295 -0.002 0.00306589 0.00527295 -0.002 0.00294873 0.00531317 -0.0015 0.00294873 0.00531317 -0.002 0.00283979 0.00537213 -0.0015 0.00283979 0.00537213 -0.0015 0.00274204 0.00544821 -0.002 0.00274204 0.00544821 -0.002 0.00265814 0.00553934 -0.0015 0.00265814 0.00553934 -0.002 0.00259039 0.00564304 -0.0015 0.00259039 0.00564304 -0.0015 0.00254064 0.00575648 -0.002 0.00254064 0.00575648 -0.002 0.00251023 0.00587655 -0.0015 0.00251023 0.00587655 -0.0015 0.0025 0.006 -0.002 0.0025 0.006 -0.002 0.004 0.006 -0.0015 0.004 0.006 -0.0015 0.004 0.008 -0.002 0.004 0.008 -0.002 0.00287628 0.00596903 -0.0015 0.00287628 0.00603097 -0.002 0.00287628 0.00603097 -0.0015 0.00325 0.005625 -0.002 0.00325 0.005625 -0.002 0.00331172 0.00563011 -0.002 0.00288647 0.00609206 -0.0015 0.00288647 0.00609206 -0.0015 0.00290658 0.00615064 -0.002 0.00290658 0.00615064 -0.0015 0.00293606 0.00620511 -0.002 0.00293606 0.00620511 -0.002 0.0029741 0.00625398 -0.0015 0.0029741 0.00625398 -0.0015 0.00301967 0.00629593 -0.002 0.00301967 0.00629593 -0.0015 0.00307152 0.0063298 -0.002 0.00307152 0.0063298 -0.002 0.00312824 0.00635468 -0.0015 0.00312824 0.00635468 -0.0015 0.00318828 0.00636989 -0.002 0.00318828 0.00636989 -0.0015 0.00325 0.006375 -0.002 0.00325 0.006375 -0.0015 0.00287628 0.00596903 -0.002 0.00288647 0.00590794 -0.0015 0.00288647 0.00590794 -0.002 0.00290658 0.00584936 -0.0015 0.00290658 0.00584936 -0.0015 0.00293606 0.00579489 -0.002 0.00293606 0.00579489 -0.002 0.0029741 0.00574602 -0.0015 0.0029741 0.00574602 -0.002 0.00301967 0.00570407 -0.0015 0.00301967 0.00570407 -0.0015 0.00307152 0.0056702 -0.002 0.00307152 0.0056702 -0.002 0.00312824 0.00564532 -0.0015 0.00312824 0.00564532 -0.002 0.00318828 0.00563011 -0.0015 0.00318828 0.00563011 -0.0015 0.00337176 0.00564532 -0.0015 0.00331172 0.00563011 -0.002 0.00337176 0.00564532 -0.0015 0.0035259 0.00574602 -0.0015 0.00348033 0.00570407 -0.002 0.0035259 0.00574602 -0.0015 0.00342848 0.0056702 -0.002 0.00342848 0.0056702 -0.002 0.00348033 0.00570407 -0.0015 0.00359342 0.00584936 -0.002 0.00361353 0.00590794 -0.0015 0.00361353 0.00590794 -0.002 0.00356394 0.00579489 -0.002 0.00359342 0.00584936 -0.0015 0.00356394 0.00579489 -0.002 0.00361353 0.00609206 -0.0015 0.00361353 0.00609206 -0.0015 0.00362372 0.00603097 -0.002 0.00362372 0.00603097 -0.0015 0.00362372 0.00596903 -0.002 0.00362372 0.00596903 -0.0015 0.0035259 0.00625398 -0.0015 0.00356394 0.00620511 -0.002 0.0035259 0.00625398 -0.0015 0.00359342 0.00615064 -0.002 0.00359342 0.00615064 -0.002 0.00356394 0.00620511 -0.002 0.00342848 0.0063298 -0.0015 0.00348033 0.00629593 -0.002 0.00348033 0.00629593 -0.002 0.00337176 0.00635468 -0.0015 0.00342848 0.0063298 -0.0015 0.00337176 0.00635468 -0.002 0.00331172 0.00636989 -0.0015 0.00331172 0.00636989 -0.0015 0.00274204 0.00544821 -0.0015 0.00290658 0.00584936 -0.0015 0.00293606 0.00579489 -0.0015 0.00259039 0.00564304 -0.0015 0.00288647 0.00590794 -0.0015 0.00265814 0.00553934 -0.0015 0.00283979 0.00537213 -0.0015 0.0029741 0.00574602 -0.0015 0.00307152 0.0056702 -0.0015 0.00294873 0.00531317 -0.0015 0.00301967 0.00570407 -0.0015 0.00312824 0.00564532 -0.0015 0.00318807 0.00525256 -0.0015 0.00306589 0.00527295 -0.0015 0.00318828 0.00563011 -0.0015 0.00325 0.005625 -0.0015 0.00356394 0.00579489 -0.0015 0.00366021 0.00537213 -0.0015 0.0035259 0.00574602 -0.0015 0.00331193 0.00525256 -0.0015 0.00398977 0.00587655 -0.0015 0.00395936 0.00575648 -0.0015 0.00362372 0.00596903 -0.0015 0.00361353 0.00590794 -0.0015 0.00384186 0.00553934 -0.0015 0.00359342 0.00584936 -0.0015 0.00359342 0.00615064 -0.0015 0.00356394 0.00620511 -0.0015 0.004 0.006 -0.0015 0.00348033 0.00629593 -0.0015 0.004 0.008 -0.0015 0.0035259 0.00625398 -0.0015 0.00362372 0.00603097 -0.0015 0.00375796 0.00544821 -0.0015 0.00390961 0.00564304 -0.0015 0.00287628 0.00596903 -0.0015 0.0025 0.006 -0.0015 0.00287628 0.00603097 -0.0015 0.00337176 0.00564532 -0.0015 0.00342848 0.0056702 -0.0015 0.00343411 0.00527295 -0.0015 0.0025 0.008 -0.0015 0.00301967 0.00629593 -0.0015 0.0029741 0.00625398 -0.0015 0.00254064 0.00575648 -0.0015 0.00251023 0.00587655 -0.0015 0.00290658 0.00615064 -0.0015 0.00288647 0.00609206 -0.0015 0.00293606 0.00620511 -0.0015 0.00312824 0.00635468 -0.0015 0.00307152 0.0063298 -0.0015 0.00325 0.006375 -0.0015 0.00318828 0.00636989 -0.0015 0.00331172 0.00636989 -0.0015 0.00342848 0.0063298 -0.0015 0.00337176 0.00635468 -0.0015 0.00361353 0.00609206 -0.0015 0.00355127 0.00531317 -0.0015 0.00348033 0.00570407 -0.0015 0.00331172 0.00563011 -0.002 0.00283979 0.00537213 -0.002 0.0029741 0.00574602 -0.002 0.00293606 0.00579489 -0.002 0.00265814 0.00553934 -0.002 0.00274204 0.00544821 -0.002 0.00290658 0.00584936 -0.002 0.00288647 0.00590794 -0.002 0.00259039 0.00564304 -0.002 0.00312824 0.00564532 -0.002 0.00307152 0.0056702 -0.002 0.00306589 0.00527295 -0.002 0.00294873 0.00531317 -0.002 0.00301967 0.00570407 -0.002 0.00318807 0.00525256 -0.002 0.00325 0.005625 -0.002 0.00318828 0.00563011 -0.002 0.0035259 0.00574602 -0.002 0.00366021 0.00537213 -0.002 0.00356394 0.00579489 -0.002 0.00331193 0.00525256 -0.002 0.00362372 0.00603097 -0.002 0.00362372 0.00596903 -0.002 0.004 0.006 -0.002 0.00359342 0.00584936 -0.002 0.00384186 0.00553934 -0.002 0.00361353 0.00590794 -0.002 0.00356394 0.00620511 -0.002 0.00359342 0.00615064 -0.002 0.00395936 0.00575648 -0.002 0.00398977 0.00587655 -0.002 0.00348033 0.00629593 -0.002 0.0035259 0.00625398 -0.002 0.004 0.008 -0.002 0.00301967 0.00629593 -0.002 0.0025 0.008 -0.002 0.0029741 0.00625398 -0.002 0.00390961 0.00564304 -0.002 0.00287628 0.00596903 -0.002 0.00287628 0.00603097 -0.002 0.0025 0.006 -0.002 0.00375796 0.00544821 -0.002 0.00337176 0.00564532 -0.002 0.00343411 0.00527295 -0.002 0.00342848 0.0056702 -0.002 0.00254064 0.00575648 -0.002 0.00251023 0.00587655 -0.002 0.00288647 0.00609206 -0.002 0.00290658 0.00615064 -0.002 0.00293606 0.00620511 -0.002 0.00307152 0.0063298 -0.002 0.00312824 0.00635468 -0.002 0.00318828 0.00636989 -0.002 0.00325 0.006375 -0.002 0.00337176 0.00635468 -0.002 0.00331172 0.00636989 -0.002 0.00342848 0.0063298 -0.002 0.00361353 0.00609206 -0.002 0.00355127 0.00531317 -0.002 0.00348033 0.00570407 -0.002 0.00331172 0.00563011 0.002 0.0025 0.008 0.0015 0.0025 0.006 0.0015 0.0025 0.008 0.002 0.0025 0.006 0.002 0.00318807 0.00525256 0.0015 0.00331193 0.00525256 0.0015 0.00318807 0.00525256 0.0015 0.00306589 0.00527295 0.002 0.00306589 0.00527295 0.0015 0.00294873 0.00531317 0.002 0.00294873 0.00531317 0.002 0.00283979 0.00537213 0.0015 0.00283979 0.00537213 0.0015 0.00274204 0.00544821 0.002 0.00274204 0.00544821 0.0015 0.00265814 0.00553934 0.002 0.00265814 0.00553934 0.002 0.00259039 0.00564304 0.0015 0.00259039 0.00564304 0.0015 0.00254064 0.00575648 0.002 0.00254064 0.00575648 0.0015 0.00251023 0.00587655 0.002 0.00251023 0.00587655 0.002 0.0025 0.006 0.0015 0.0025 0.006 0.002 0.00331193 0.00525256 0.0015 0.00343411 0.00527295 0.002 0.00343411 0.00527295 0.002 0.00355127 0.00531317 0.0015 0.00355127 0.00531317 0.002 0.00366021 0.00537213 0.0015 0.00366021 0.00537213 0.0015 0.00375796 0.00544821 0.002 0.00375796 0.00544821 0.002 0.00384186 0.00553934 0.0015 0.00384186 0.00553934 0.002 0.00390961 0.00564304 0.0015 0.00390961 0.00564304 0.0015 0.00395936 0.00575648 0.002 0.00395936 0.00575648 0.002 0.00398977 0.00587655 0.0015 0.00398977 0.00587655 0.0015 0.004 0.006 0.002 0.004 0.006 0.002 0.004 0.006 0.0015 0.004 0.008 0.0015 0.004 0.006 0.002 0.004 0.008 0.002 0.00312507 0.00564642 0.0015 0.00312507 0.00564642 0.0015 0.00318662 0.00563039 0.0015 0.00325 0.005625 0.002 0.00325 0.005625 0.002 0.00318662 0.00563039 0.0015 0.00301442 0.00570824 0.002 0.0029685 0.00575225 0.0015 0.0029685 0.00575225 0.002 0.00301442 0.00570824 0.0015 0.00306711 0.00567262 0.002 0.00306711 0.00567262 0.002 0.00288342 0.005921 0.0015 0.00288342 0.005921 0.0015 0.00290204 0.00586018 0.002 0.00290204 0.00586018 0.0015 0.00293068 0.00580338 0.002 0.00293068 0.00580338 0.0015 0.00289144 0.00610981 0.0015 0.00287804 0.00604763 0.002 0.00289144 0.00610981 0.0015 0.00287534 0.00598408 0.002 0.00287534 0.00598408 0.002 0.00287804 0.00604763 0.0015 0.0029485 0.00622299 0.002 0.00299052 0.00627073 0.0015 0.00299052 0.00627073 0.002 0.00291515 0.00616883 0.002 0.0029485 0.00622299 0.0015 0.00291515 0.00616883 0.002 0.00315551 0.0063629 0.0015 0.00315551 0.0063629 0.0015 0.00309554 0.00634171 0.002 0.00309554 0.00634171 0.0015 0.00304001 0.00631069 0.002 0.00304001 0.00631069 0.0015 0.00334449 0.0063629 0.0015 0.0032818 0.00637365 0.002 0.00334449 0.0063629 0.0015 0.0032182 0.00637365 0.002 0.0032182 0.00637365 0.002 0.0032818 0.00637365 0.0015 0.00345999 0.00631069 0.002 0.00350948 0.00627073 0.0015 0.00350948 0.00627073 0.002 0.00340446 0.00634171 0.002 0.00345999 0.00631069 0.0015 0.00340446 0.00634171 0.002 0.00360856 0.00610981 0.0015 0.00360856 0.00610981 0.0015 0.00358485 0.00616883 0.002 0.00358485 0.00616883 0.0015 0.0035515 0.00622299 0.002 0.0035515 0.00622299 0.002 0.00361658 0.005921 0.0015 0.00362466 0.00598408 0.002 0.00362466 0.00598408 0.0015 0.00362196 0.00604763 0.002 0.00362196 0.00604763 0.002 0.00359796 0.00586018 0.0015 0.00361658 0.005921 0.0015 0.00359796 0.00586018 0.002 0.00356932 0.00580338 0.002 0.0035315 0.00575225 0.0015 0.00356932 0.00580338 0.002 0.00348558 0.00570824 0.0015 0.0035315 0.00575225 0.0015 0.00348558 0.00570824 0.002 0.00343289 0.00567262 0.002 0.00337493 0.00564642 0.0015 0.00343289 0.00567262 0.002 0.00331338 0.00563039 0.0015 0.00337493 0.00564642 0.0015 0.00331338 0.00563039 0.0015 0.00283979 0.00537213 0.0015 0.0029685 0.00575225 0.0015 0.00293068 0.00580338 0.0015 0.00274204 0.00544821 0.0015 0.00290204 0.00586018 0.0015 0.00288342 0.005921 0.0015 0.00259039 0.00564304 0.0015 0.00265814 0.00553934 0.0015 0.00312507 0.00564642 0.0015 0.00306711 0.00567262 0.0015 0.00306589 0.00527295 0.0015 0.00294873 0.00531317 0.0015 0.00301442 0.00570824 0.0015 0.00318807 0.00525256 0.0015 0.00325 0.005625 0.0015 0.00318662 0.00563039 0.0015 0.0035315 0.00575225 0.0015 0.00366021 0.00537213 0.0015 0.00356932 0.00580338 0.0015 0.00331193 0.00525256 0.0015 0.004 0.006 0.0015 0.00362196 0.00604763 0.0015 0.00362466 0.00598408 0.0015 0.00359796 0.00586018 0.0015 0.00384186 0.00553934 0.0015 0.00361658 0.005921 0.0015 0.004 0.008 0.0015 0.00350948 0.00627073 0.0015 0.0035515 0.00622299 0.0015 0.00358485 0.00616883 0.0015 0.00395936 0.00575648 0.0015 0.00398977 0.00587655 0.0015 0.00360856 0.00610981 0.0015 0.0029485 0.00622299 0.0015 0.00299052 0.00627073 0.0015 0.0025 0.008 0.0015 0.00390961 0.00564304 0.0015 0.00287534 0.00598408 0.0015 0.00287804 0.00604763 0.0015 0.0025 0.006 0.0015 0.00375796 0.00544821 0.0015 0.00337493 0.00564642 0.0015 0.00343411 0.00527295 0.0015 0.00343289 0.00567262 0.0015 0.00254064 0.00575648 0.0015 0.00251023 0.00587655 0.0015 0.00289144 0.00610981 0.0015 0.00291515 0.00616883 0.0015 0.00304001 0.00631069 0.0015 0.00309554 0.00634171 0.0015 0.00315551 0.0063629 0.0015 0.0032182 0.00637365 0.0015 0.0032818 0.00637365 0.0015 0.00340446 0.00634171 0.0015 0.00334449 0.0063629 0.0015 0.00345999 0.00631069 0.0015 0.00355127 0.00531317 0.0015 0.00348558 0.00570824 0.0015 0.00331338 0.00563039 0.002 0.00290204 0.00586018 0.002 0.00274204 0.00544821 0.002 0.00265814 0.00553934 0.002 0.00259039 0.00564304 0.002 0.00288342 0.005921 0.002 0.00283979 0.00537213 0.002 0.00293068 0.00580338 0.002 0.0029685 0.00575225 0.002 0.00306711 0.00567262 0.002 0.00294873 0.00531317 0.002 0.00301442 0.00570824 0.002 0.00312507 0.00564642 0.002 0.00318807 0.00525256 0.002 0.00306589 0.00527295 0.002 0.00318662 0.00563039 0.002 0.00325 0.005625 0.002 0.00356932 0.00580338 0.002 0.00366021 0.00537213 0.002 0.0035315 0.00575225 0.002 0.00331193 0.00525256 0.002 0.00398977 0.00587655 0.002 0.00395936 0.00575648 0.002 0.00362466 0.00598408 0.002 0.00361658 0.005921 0.002 0.00384186 0.00553934 0.002 0.00359796 0.00586018 0.002 0.00358485 0.00616883 0.002 0.0035515 0.00622299 0.002 0.004 0.006 0.002 0.00360856 0.00610981 0.002 0.00362196 0.00604763 0.002 0.00350948 0.00627073 0.002 0.004 0.008 0.002 0.00375796 0.00544821 0.002 0.00390961 0.00564304 0.002 0.00287534 0.00598408 0.002 0.0025 0.006 0.002 0.00287804 0.00604763 0.002 0.00337493 0.00564642 0.002 0.00343289 0.00567262 0.002 0.00343411 0.00527295 0.002 0.00299052 0.00627073 0.002 0.0029485 0.00622299 0.002 0.0025 0.008 0.002 0.00254064 0.00575648 0.002 0.00251023 0.00587655 0.002 0.00291515 0.00616883 0.002 0.00289144 0.00610981 0.002 0.00309554 0.00634171 0.002 0.00304001 0.00631069 0.002 0.0032182 0.00637365 0.002 0.00315551 0.0063629 0.002 0.0032818 0.00637365 0.002 0.00340446 0.00634171 0.002 0.00334449 0.0063629 0.002 0.00345999 0.00631069 0.002 0.00355127 0.00531317 0.002 0.00348558 0.00570824 0.002 0.00331338 0.00563039</float_array>
          <technique_common>
            <accessor count="820" source="#ID5" stride="3">
              <param name="X" type="float"/>
              <param name="Y" type="float"/>
              <param name="Z" type="float"/>
            </accessor>
          </technique_common>
        </source>
        <source id="ID6">
          <float_array count="2460" id="ID7">-0 -0 -1 -0 -0 -1 -0 -0 -1 -0 -0 -1 -0 -0 -1 -0 -0 -1 -0 -0 -1 -0 -0 -1 -0 -0 -1 -0 -0 -1 -0 -0 -1 -0 -0 -1 -0 -0 -1 -0 -0 -1 -0 -0 -1 -0 -0 -1 -0 -0 -1 -0 -0 -1 -0 -0 -1 -0 -0 -1 -0 -0 -1 -0 -0 -1 -0 -0 -1 -0 -0 -1 -0 -0 -1 -0 -0 -1 -0 -0 -1 -0 -0 -1 -0 -0 -1 -0 -0 -1 -0 -0 -1 -0 -0 -1 -0 -0 -1 -0 -0 -1 -0 -0 -1 -0 -0 -1 -0 -0 -1 -0 -0 -1 -0 -0 -1 -0 -0 -1 -0 -0 -1 -0 -0 -1 -0 -0 -1 -0 -0 -1 -0 -0 -1 -0 -0 -1 -0 -0 -1 -0 -0 -1 -0 -0 -1 -0 -0 -1 -0 -0 -1 -0 -0 -1 -0 -0 -1 -0 -0 -1 -0 -0 -1 -0 -0 -1 -0 -0 -1 -0 -0 -1 -0 -0 -1 -0 -0 -1 -0 -0 -1 -0 -0 -1 -0 -0 -1 -0 -0 -1 -0 -0 -1 -0 -0 -1 -0 -0 -1 -0 -0 -1 -0 -0 -1 -0 -0 -1 -0 -0 -1 -0 -0 -1 -0 -0 -1 -0 -0 -1 -0 -0 -1 -0 -0 -1 -0 -0 -1 -0 -0 -1 -0 -0 -1 -0 -0 -1 -0 -0 -1 -0 -0 -1 -0 -0 -1 -0 -0 -1 -0 -0 -1 -0 -0 -1 -0 -0 -1 -0 -0 -1 -1 -2.1684e-16 0 -1 -2.1684e-16 0 -1 -2.1684e-16 0 -1 -2.1684e-16 0 -0 -1 -0 -0 -1 -0 -0 -1 -0 -0 -1 -0 1 2.1684e-16 0 1 2.1684e-16 0 1 2.1684e-16 0 1 2.1684e-16 0 -0.0825794 0.996584 0 0.0825794 0.996584 0 0.0825794 0.996584 0 -1 8.74228e-08 0 -1 8.74228e-08 0 -0.986361 -0.164595 -0 0.245485 0.9694 0 0.245486 0.9694 0 0.401695 0.915773 0 0.401695 0.915773 0 0.546948 0.837166 0 0.546948 0.837166 0 0.677282 0.735724 0 0.677282 0.735724 0 0.78914 0.614213 0 0.789141 0.614213 0 0.879474 0.475948 0 0.879474 0.475947 0 0.945817 0.324699 0 0.945817 0.3247 0 0.986361 0.164595 0 0.986361 0.164595 0 1 -1.74846e-07 0 1 3.01992e-07 0 -0.0825794 0.996584 0 -0.245486 0.9694 0 -0.245486 0.9694 0 -0.401695 0.915773 0 -0.401695 0.915773 0 -0.546948 0.837167 0 -0.546948 0.837167 0 -0.677282 0.735724 0 -0.677282 0.735724 0 -0.78914 0.614213 0 -0.78914 0.614213 0 -0.879474 0.475947 0 -0.879474 0.475947 0 -0.945817 0.324699 0 -0.945817 0.324699 0 -0.986361 0.164595 0 -0.986361 0.164595 0 -0.945817 -0.3247 -0 -0.986361 -0.164595 -0 -0.945817 -0.324699 -0 -0.677282 -0.735724 -0 -0.789141 -0.614213 -0 -0.677282 -0.735724 -0 -0.879474 -0.475947 -0 -0.879474 -0.475947 -0 -0.78914 -0.614213 -0 -0.401695 -0.915773 -0 -0.245485 -0.9694 -0 -0.245485 -0.9694 -0 -0.546948 -0.837166 -0 -0.401695 -0.915773 -0 -0.546948 -0.837166 -0 0.245485 -0.9694 0 0.245485 -0.9694 0 0.0825794 -0.996584 0 0.0825794 -0.996584 0 -0.0825794 -0.996584 -0 -0.0825792 -0.996584 -0 0.677282 -0.735724 0 0.546948 -0.837166 0 0.677282 -0.735724 0 0.401695 -0.915773 0 0.401695 -0.915773 0 0.546948 -0.837166 0 0.879474 -0.475947 0 0.789141 -0.614213 0 0.789141 -0.614213 0 0.945817 -0.324699 0 0.879474 -0.475947 0 0.945817 -0.324699 0 0.986361 -0.164595 0 0.986361 -0.164595 0 0 1 0 0 1 0 0 1 0 0 1 0 -0.0825794 0.996584 0 0.0825794 0.996584 0 0.0825794 0.996584 0 -1 8.74228e-08 0 -1 8.74228e-08 0 -0.986361 -0.164595 -0 0.245485 0.9694 0 0.245486 0.9694 0 0.401695 0.915773 0 0.401695 0.915773 0 0.546948 0.837166 0 0.546948 0.837166 0 0.677282 0.735724 0 0.677282 0.735724 0 0.78914 0.614213 0 0.789141 0.614213 0 0.879474 0.475948 0 0.879474 0.475947 0 0.945817 0.324699 0 0.945817 0.3247 0 0.986361 0.164595 0 0.986361 0.164595 0 1 -1.74846e-07 0 1 3.01992e-07 0 -0.0825794 0.996584 0 -0.245486 0.9694 0 -0.245486 0.9694 0 -0.401695 0.915773 0 -0.401695 0.915773 0 -0.546948 0.837167 0 -0.546948 0.837167 0 -0.677282 0.735724 0 -0.677282 0.735724 0 -0.78914 0.614213 0 -0.78914 0.614213 0 -0.879474 0.475947 0 -0.879474 0.475947 0 -0.945817 0.324699 0 -0.945817 0.324699 0 -0.986361 0.164595 0 -0.986361 0.164595 0 -0.945817 -0.3247 -0 -0.986361 -0.164595 -0 -0.945817 -0.324699 -0 -0.677282 -0.735724 -0 -0.789141 -0.614213 -0 -0.677282 -0.735724 -0 -0.879474 -0.475947 -0 -0.879474 -0.475947 -0 -0.78914 -0.614213 -0 -0.401695 -0.915773 -0 -0.245485 -0.9694 -0 -0.245485 -0.9694 -0 -0.546948 -0.837166 -0 -0.401695 -0.915773 -0 -0.546948 -0.837166 -0 0.245485 -0.9694 0 0.245485 -0.9694 0 0.0825794 -0.996584 0 0.0825794 -0.996584 0 -0.0825794 -0.996584 -0 -0.0825792 -0.996584 -0 0.677282 -0.735724 0 0.546948 -0.837166 0 0.677282 -0.735724 0 0.401695 -0.915773 0 0.401695 -0.915773 0 0.546948 -0.837166 0 0.879474 -0.475947 0 0.789141 -0.614213 0 0.789141 -0.614213 0 0.945817 -0.324699 0 0.879474 -0.475947 0 0.945817 -0.324699 0 0.986361 -0.164595 0 0.986361 -0.164595 0 0 0 1 0 0 1 0 0 1 0 0 1 0 0 1 0 0 1 0 0 1 0 0 1 0 0 1 0 0 1 0 0 1 0 0 1 0 0 1 0 0 1 0 0 1 0 0 1 0 0 1 0 0 1 0 0 1 0 0 1 0 0 1 0 0 1 0 0 1 0 0 1 0 0 1 0 0 1 0 0 1 0 0 1 0 0 1 0 0 1 0 0 1 0 0 1 0 0 1 0 0 1 0 0 1 0 0 1 0 0 1 0 0 1 0 0 1 0 0 1 0 0 1 0 0 1 0 0 1 0 0 1 0 0 1 0 0 1 0 0 1 0 0 1 0 0 1 0 0 1 0 0 1 0 0 1 0 0 1 0 0 1 0 0 1 0 0 1 0 0 1 0 0 1 0 0 1 0 0 1 0 0 1 0 0 1 0 0 1 0 0 1 0 0 1 0 0 1 0 0 1 0 0 1 0 0 1 0 0 1 0 0 1 0 0 1 0 0 1 0 0 1 0 0 1 0 0 1 0 0 1 0 0 1 0 0 1 0 0 1 -0 -1 -0 -0 -1 -0 -0 -1 -0 -0 -1 -0 0 0.0825793 -0.996584 -0 -0.0825795 -0.996584 0 0.0825793 -0.996584 0 0.245486 -0.9694 0 0.245486 -0.9694 0 0.401695 -0.915773 0 0.401695 -0.915773 0 0.546948 -0.837166 0 0.546948 -0.837166 0 0.677282 -0.735724 0 0.677282 -0.735724 0 0.789141 -0.614213 0 0.789141 -0.614213 0 0.879474 -0.475947 0 0.879474 -0.475947 0 0.945817 -0.3247 0 0.945817 -0.3247 0 0.986361 -0.164595 0 0.986361 -0.164595 0 1 -4.37114e-08 0 1 -4.37114e-08 -0 -0.0825795 -0.996584 -0 -0.245486 -0.9694 -0 -0.245486 -0.9694 -0 -0.401695 -0.915773 -0 -0.401695 -0.915773 -0 -0.546948 -0.837166 -0 -0.546948 -0.837166 -0 -0.677281 -0.735724 -0 -0.677281 -0.735724 -0 -0.789141 -0.614213 -0 -0.789141 -0.614213 -0 -0.879474 -0.475947 -0 -0.879474 -0.475947 -0 -0.945817 -0.3247 -0 -0.945817 -0.3247 -0 -0.986361 -0.164595 -0 -0.986361 -0.164595 0 -1 1.19249e-08 0 -1 1.19249e-08 0 1 0 0 1 0 0 1 0 0 1 0 0 0.996584 0.0825794 0 0.996584 -0.0825794 0 0.996584 -0.0825794 0 8.74228e-08 1 0 8.74228e-08 1 0 -0.164595 0.986361 0 0.9694 -0.245485 0 0.9694 -0.245486 0 0.915773 -0.401695 0 0.915773 -0.401695 0 0.837166 -0.546948 0 0.837166 -0.546948 0 0.735724 -0.677282 0 0.735724 -0.677282 0 0.614213 -0.78914 0 0.614213 -0.789141 0 0.475948 -0.879474 0 0.475947 -0.879474 0 0.324699 -0.945817 0 0.3247 -0.945817 0 0.164595 -0.986361 0 0.164595 -0.986361 -0 -1.74846e-07 -1 0 3.01992e-07 -1 0 0.996584 0.0825794 0 0.9694 0.245486 0 0.9694 0.245486 0 0.915773 0.401695 0 0.915773 0.401695 0 0.837167 0.546948 0 0.837167 0.546948 0 0.735724 0.677282 0 0.735724 0.677282 0 0.614213 0.78914 0 0.614213 0.78914 0 0.475947 0.879474 0 0.475947 0.879474 0 0.324699 0.945817 0 0.324699 0.945817 0 0.164595 0.986361 0 0.164595 0.986361 0 -0.3247 0.945817 0 -0.164595 0.986361 0 -0.324699 0.945817 0 -0.735724 0.677282 0 -0.614213 0.789141 0 -0.735724 0.677282 0 -0.475947 0.879474 0 -0.475947 0.879474 0 -0.614213 0.78914 0 -0.915773 0.401695 0 -0.9694 0.245485 0 -0.9694 0.245485 0 -0.837166 0.546948 0 -0.915773 0.401695 0 -0.837166 0.546948 -0 -0.9694 -0.245485 -0 -0.9694 -0.245485 -0 -0.996584 -0.0825794 -0 -0.996584 -0.0825794 0 -0.996584 0.0825794 0 -0.996584 0.0825792 -0 -0.735724 -0.677282 -0 -0.837166 -0.546948 -0 -0.735724 -0.677282 -0 -0.915773 -0.401695 -0 -0.915773 -0.401695 -0 -0.837166 -0.546948 -0 -0.475947 -0.879474 -0 -0.614213 -0.789141 -0 -0.614213 -0.789141 -0 -0.324699 -0.945817 -0 -0.475947 -0.879474 -0 -0.324699 -0.945817 -0 -0.164595 -0.986361 -0 -0.164595 -0.986361 1 0 0 1 0 0 1 0 0 1 0 0 1 0 0 1 0 0 1 0 0 1 0 0 1 0 0 1 0 0 1 0 0 1 0 0 1 0 0 1 0 0 1 0 0 1 0 0 1 0 0 1 0 0 1 0 0 1 0 0 1 0 0 1 0 0 1 0 0 1 0 0 1 0 0 1 0 0 1 0 0 1 0 0 1 0 0 1 0 0 1 0 0 1 0 0 1 0 0 1 0 0 1 0 0 1 0 0 1 0 0 1 0 0 1 0 0 1 0 0 1 0 0 1 0 0 1 0 0 1 0 0 1 0 0 1 0 0 1 0 0 1 0 0 1 0 0 1 0 0 1 0 0 1 0 0 1 0 0 1 0 0 1 0 0 1 0 0 1 0 0 1 0 0 1 0 0 1 0 0 -1 -0 -0 -1 -0 -0 -1 -0 -0 -1 -0 -0 -1 -0 -0 -1 -0 -0 -1 -0 -0 -1 -0 -0 -1 -0 -0 -1 -0 -0 -1 -0 -0 -1 -0 -0 -1 -0 -0 -1 -0 -0 -1 -0 -0 -1 -0 -0 -1 -0 -0 -1 -0 -0 -1 -0 -0 -1 -0 -0 -1 -0 -0 -1 -0 -0 -1 -0 -0 -1 -0 -0 -1 -0 -0 -1 -0 -0 -1 -0 -0 -1 -0 -0 -1 -0 -0 -1 -0 -0 -1 -0 -0 -1 -0 -0 -1 -0 -0 -1 -0 -0 -1 -0 -0 -1 -0 -0 -1 -0 -0 -1 -0 -0 -1 -0 -0 -1 -0 -0 -1 -0 -0 -1 -0 -0 -1 -0 -0 -1 -0 -0 -1 -0 -0 -1 -0 -0 -1 -0 -0 -1 -0 -0 -1 -0 -0 -1 -0 -0 -1 -0 -0 -1 -0 -0 -1 -0 -0 -1 -0 -0 -1 -0 -0 -1 -0 -0 -1 -0 -0 -1 -0 -0 -1 -0 -0 -1 -0 -0 0 -1 0 0 -1 0 0 -1 0 0 -1 0 0 -0.0825793 -0.996584 0 0.0825795 -0.996584 0 -0.0825793 -0.996584 0 -0.245486 -0.9694 0 -0.245486 -0.9694 0 -0.401695 -0.915773 0 -0.401695 -0.915773 0 -0.546948 -0.837166 0 -0.546948 -0.837166 0 -0.677282 -0.735724 0 -0.677282 -0.735724 0 -0.789141 -0.614213 0 -0.789141 -0.614213 0 -0.879474 -0.475947 0 -0.879474 -0.475947 0 -0.945817 -0.3247 0 -0.945817 -0.3247 0 -0.986361 -0.164595 0 -0.986361 -0.164595 0 -1 -4.37114e-08 0 -1 -4.37114e-08 0 0.0825795 -0.996584 0 0.245486 -0.9694 0 0.245486 -0.9694 0 0.401695 -0.915773 0 0.401695 -0.915773 0 0.546948 -0.837166 0 0.546948 -0.837166 0 0.677281 -0.735724 0 0.677281 -0.735724 0 0.789141 -0.614213 0 0.789141 -0.614213 0 0.879474 -0.475947 0 0.879474 -0.475947 0 0.945817 -0.3247 0 0.945817 -0.3247 0 0.986361 -0.164595 0 0.986361 -0.164595 0 1 1.19249e-08 0 1 1.19249e-08 0 1 0 0 1 0 0 1 0 0 1 0 0 0.33314 0.942877 0 0.33314 0.942877 0 0.169001 0.985616 0 -1.74846e-07 1 0 3.01992e-07 1 0 0.169001 0.985616 0 0.62822 0.778036 0 0.750672 0.660675 0 0.750672 0.660675 0 0.62822 0.778036 0 0.487695 0.873014 0 0.487695 0.873014 0 0.977555 0.210679 0 0.977555 0.210679 0 0.927889 0.372856 0 0.927889 0.372857 0 0.851529 0.524307 0 0.851529 0.524307 0 0.956167 -0.292823 0 0.9919 -0.127018 0 0.956167 -0.292823 0 0.999099 0.0424415 0 0.999099 0.042441 0 0.9919 -0.127018 0 0.803997 -0.594633 0 0.691939 -0.721956 0 0.691939 -0.721956 0 0.892926 -0.450204 0 0.803997 -0.594633 0 0.892926 -0.450204 0 0.251978 -0.967733 0 0.251978 -0.967733 0 0.411901 -0.911228 0 0.411901 -0.911228 0 0.559975 -0.82851 0 0.559975 -0.82851 -0 -0.251978 -0.967733 -0 -0.0848059 -0.996397 -0 -0.251978 -0.967733 0 0.0848059 -0.996397 0 0.0848059 -0.996397 -0 -0.0848059 -0.996397 -0 -0.559975 -0.82851 -0 -0.691939 -0.721956 -0 -0.691939 -0.721956 -0 -0.411901 -0.911228 -0 -0.559975 -0.82851 -0 -0.411901 -0.911229 -0 -0.956167 -0.292823 -0 -0.956167 -0.292823 -0 -0.892926 -0.450204 -0 -0.892926 -0.450204 -0 -0.803997 -0.594633 -0 -0.803997 -0.594633 0 -0.977555 0.210679 0 -0.999099 0.0424412 0 -0.999099 0.0424412 -0 -0.9919 -0.127018 -0 -0.9919 -0.127018 0 -0.927889 0.372857 0 -0.977555 0.210679 0 -0.927889 0.372856 0 -0.851529 0.524307 0 -0.750672 0.660675 0 -0.851529 0.524307 0 -0.62822 0.778036 0 -0.750672 0.660675 0 -0.62822 0.778036 0 -0.487695 0.873014 0 -0.33314 0.942877 0 -0.487695 0.873014 0 -0.169001 0.985616 0 -0.33314 0.942877 0 -0.169001 0.985616 -1 -0 -0 -1 -0 -0 -1 -0 -0 -1 -0 -0 -1 -0 -0 -1 -0 -0 -1 -0 -0 -1 -0 -0 -1 -0 -0 -1 -0 -0 -1 -0 -0 -1 -0 -0 -1 -0 -0 -1 -0 -0 -1 -0 -0 -1 -0 -0 -1 -0 -0 -1 -0 -0 -1 -0 -0 -1 -0 -0 -1 -0 -0 -1 -0 -0 -1 -0 -0 -1 -0 -0 -1 -0 -0 -1 -0 -0 -1 -0 -0 -1 -0 -0 -1 -0 -0 -1 -0 -0 -1 -0 -0 -1 -0 -0 -1 -0 -0 -1 -0 -0 -1 -0 -0 -1 -0 -0 -1 -0 -0 -1 -0 -0 -1 -0 -0 -1 -0 -0 -1 -0 -0 -1 -0 -0 -1 -0 -0 -1 -0 -0 -1 -0 -0 -1 -0 -0 -1 -0 -0 -1 -0 -0 -1 -0 -0 -1 -0 -0 -1 -0 -0 -1 -0 -0 -1 -0 -0 -1 -0 -0 -1 -0 -0 -1 -0 -0 -1 -0 -0 -1 -0 -0 -1 -0 -0 1 0 0 1 0 0 1 0 0 1 0 0 1 0 0 1 0 0 1 0 0 1 0 0 1 0 0 1 0 0 1 0 0 1 0 0 1 0 0 1 0 0 1 0 0 1 0 0 1 0 0 1 0 0 1 0 0 1 0 0 1 0 0 1 0 0 1 0 0 1 0 0 1 0 0 1 0 0 1 0 0 1 0 0 1 0 0 1 0 0 1 0 0 1 0 0 1 0 0 1 0 0 1 0 0 1 0 0 1 0 0 1 0 0 1 0 0 1 0 0 1 0 0 1 0 0 1 0 0 1 0 0 1 0 0 1 0 0 1 0 0 1 0 0 1 0 0 1 0 0 1 0 0 1 0 0 1 0 0 1 0 0 1 0 0 1 0 0 1 0 0 1 0 0 1 0 0</float_array>
          <technique_common>
            <accessor count="820" source="#ID7" stride="3">
              <param name="X" type="float"/>
              <param name="Y" type="float"/>
              <param name="Z" type="float"/>
            </accessor>
          </technique_common>
        </source>
        <vertices id="ID8">
          <input semantic="POSITION" source="#ID4"/>
          <input semantic="NORMAL" source="#ID6"/>
        </vertices>
        <triangles count="808" material="ID9">
          <input offset="0" semantic="VERTEX" source="#ID8"/>
          <p>0 2 1 3 5 4 4 5 6 7 8 3 9 11 10 12 13 9 11 9 14 15 9 10 9 13 4 16 17 10 18 19 9 9 19 12 20 21 9 9 21 18 22 23 9 9 23 20 24 25 9 9 25 22 9 15 26 9 26 24 27 28 10 10 28 15 10 17 27 10 30 29 16 10 29 10 32 31 30 10 31 3 32 10 33 34 3 3 8 32 35 36 3 3 36 7 3 34 37 3 37 35 4 38 3 33 3 38 39 40 4 4 40 38 41 42 4 4 42 39 43 44 4 4 44 41 45 46 4 4 46 43 47 48 4 4 48 45 13 47 4 49 50 2 51 5 11 52 53 1 49 2 54 55 2 56 55 54 2 11 14 51 14 1 2 1 14 9 57 58 1 1 58 0 59 60 1 1 60 57 61 62 1 1 62 59 63 64 1 1 64 61 1 53 65 1 65 63 6 52 1 66 67 6 6 67 52 68 69 6 6 69 66 70 72 71 73 74 6 6 74 68 75 76 6 6 76 73 77 78 6 6 78 75 6 72 77 71 79 70 71 72 6 71 81 80 51 6 5 71 83 82 81 71 82 2 50 84 83 71 84 79 71 85 80 85 71 2 84 71 6 51 71 2 0 86 56 2 87 86 87 2 88 90 89 90 88 91 92 94 93 93 95 92 96 98 97 96 99 98 100 102 101 103 105 104 106 107 102 101 102 107 108 106 109 106 108 107 109 111 110 110 108 109 112 113 111 110 111 113 114 112 115 112 114 113 115 117 116 116 114 115 118 119 117 116 117 119 120 118 121 118 120 119 122 120 121 122 121 123 101 124 100 125 124 126 124 125 100 126 128 127 127 125 126 129 130 128 127 128 130 131 129 132 129 131 130 132 134 133 133 131 132 135 136 134 133 134 136 137 135 138 135 137 136 138 140 139 139 137 138 139 140 104 141 143 142 140 103 104 144 146 145 147 149 148 150 152 151 153 155 154 156 158 157 159 161 160 162 164 163 165 167 166 168 170 169 162 169 170 168 172 171 172 168 169 173 174 171 171 172 173 123 174 175 173 175 174 122 123 175 163 164 167 162 170 164 165 166 157 163 167 165 156 159 158 166 156 157 161 152 160 159 160 158 154 150 151 151 152 161 144 155 153 155 150 154 145 146 149 144 153 146 147 148 141 145 149 147 143 105 142 148 143 141 103 142 105 176 178 177 178 176 179 180 182 181 183 185 184 186 187 182 181 182 187 188 186 189 186 188 187 189 191 190 190 188 189 192 193 191 190 191 193 194 192 195 192 194 193 195 197 196 196 194 195 198 199 197 196 197 199 200 198 201 198 200 199 202 200 201 202 201 203 181 204 180 205 204 206 204 205 180 206 208 207 207 205 206 209 210 208 207 208 210 211 209 212 209 211 210 212 214 213 213 211 212 215 216 214 213 214 216 217 215 218 215 217 216 218 220 219 219 217 218 219 220 184 221 223 222 220 183 184 224 226 225 227 229 228 230 232 231 233 235 234 236 238 237 239 241 240 242 244 243 245 247 246 248 250 249 242 249 250 248 252 251 252 248 249 253 254 251 251 252 253 203 254 255 253 255 254 202 203 255 243 244 247 242 250 244 245 246 237 243 247 245 236 239 238 246 236 237 241 232 240 239 240 238 234 230 231 231 232 241 224 235 233 235 230 234 225 226 229 224 233 226 227 228 221 225 229 227 223 185 222 228 223 221 183 222 185 256 258 257 259 261 260 260 263 262 258 265 264 266 258 267 258 256 267 268 258 269 258 266 269 270 258 271 258 268 271 272 258 273 258 270 273 258 272 265 258 275 274 264 275 258 276 278 277 279 280 274 281 283 282 261 263 260 284 285 262 262 263 284 286 285 284 287 289 288 290 291 286 292 294 293 295 297 296 298 299 281 299 298 300 301 281 302 303 257 299 281 299 257 304 257 305 257 303 305 306 257 307 257 304 307 308 257 309 257 306 309 310 257 311 257 308 311 312 257 313 257 310 313 256 257 312 274 280 258 259 277 261 314 316 315 317 278 276 276 277 259 318 317 279 317 318 278 318 279 274 319 316 280 258 280 316 320 316 321 316 319 321 322 316 323 316 320 323 324 316 325 316 322 325 326 316 327 316 324 327 316 328 315 316 326 328 316 314 281 329 281 330 281 314 330 331 281 332 281 329 332 300 298 292 281 331 302 298 281 333 281 301 283 334 281 335 281 282 335 281 334 333 294 296 293 292 293 300 295 289 297 294 295 296 287 288 290 297 289 287 286 291 285 290 288 291 336 338 337 336 339 338 340 342 341 342 344 343 344 342 340 345 343 346 344 346 343 347 348 345 345 346 347 348 350 349 350 348 347 351 349 352 350 352 349 353 354 351 351 352 353 354 356 355 356 354 353 357 355 358 356 358 355 359 360 357 357 358 359 340 341 361 362 363 361 361 341 362 363 365 364 365 363 362 366 364 367 365 367 364 368 369 366 366 367 368 369 371 370 371 369 368 372 370 373 371 373 370 374 375 372 372 373 374 375 377 376 377 375 374 377 378 376 376 378 379 380 382 381 380 383 382 384 386 385 387 389 388 390 391 386 385 386 391 392 390 393 390 392 391 393 395 394 394 392 393 396 397 395 394 395 397 398 396 399 396 398 397 399 401 400 400 398 399 402 403 401 400 401 403 404 402 405 402 404 403 406 404 405 406 405 407 385 408 384 409 408 410 408 409 384 410 412 411 411 409 410 413 414 412 411 412 414 415 413 416 413 415 414 416 418 417 417 415 416 419 420 418 417 418 420 421 419 422 419 421 420 422 424 423 423 421 422 423 424 388 425 427 426 424 387 388 428 430 429 431 433 432 434 436 435 437 439 438 440 442 441 443 445 444 446 448 447 449 451 450 452 454 453 446 453 454 452 456 455 456 452 453 457 458 455 455 456 457 407 458 459 457 459 458 406 407 459 447 448 451 446 454 448 449 450 441 447 451 449 440 443 442 450 440 441 445 436 444 443 444 442 438 434 435 435 436 445 428 439 437 439 434 438 429 430 433 428 437 430 431 432 425 429 433 431 427 389 426 432 427 425 387 426 389 460 462 461 463 465 464 466 467 462 460 461 465 468 470 469 471 473 472 473 471 468 472 475 474 471 472 474 476 478 477 479 475 472 480 482 481 483 485 484 486 488 487 489 491 490 482 488 492 476 493 485 494 482 483 495 497 496 498 500 499 501 503 502 469 470 467 469 473 468 466 462 460 466 469 467 463 464 495 461 464 465 504 495 505 504 463 495 505 495 496 496 507 506 497 507 496 501 496 508 506 508 496 501 508 503 501 510 509 502 510 501 501 512 511 509 512 501 513 490 511 501 511 490 514 490 515 490 513 515 490 514 489 486 516 488 490 487 488 491 487 490 492 488 516 480 488 482 482 494 481 483 484 494 485 493 484 478 517 477 476 477 493 517 518 499 478 518 517 500 498 479 517 499 500 475 479 519 479 498 519 520 522 521 523 525 524 526 523 527 528 530 529 531 532 529 533 530 528 534 533 535 533 528 535 536 538 537 534 539 533 540 542 541 543 545 544 546 542 547 541 549 548 550 552 551 553 555 554 556 545 541 525 522 524 557 559 558 538 543 560 561 563 562 531 521 532 531 529 530 520 524 522 520 521 531 527 557 526 525 523 526 564 565 557 564 557 527 565 559 557 559 567 566 558 559 566 554 568 559 567 559 568 554 555 568 554 570 569 553 554 569 554 572 571 570 554 571 554 552 572 573 574 552 552 574 572 552 550 575 552 575 573 547 542 576 552 542 546 551 552 546 540 576 542 549 541 542 541 548 556 545 556 544 543 544 560 536 537 577 538 560 537 577 563 578 536 577 578 562 539 561 577 562 563 534 579 539 539 579 561 580 582 581 580 581 583 584 586 585 586 588 587 588 586 584 589 587 590 588 590 587 591 592 589 589 590 591 592 594 593 594 592 591 595 593 596 594 596 593 597 598 595 595 596 597 598 600 599 600 598 597 601 599 602 600 602 599 603 604 601 601 602 603 584 585 605 606 607 605 605 585 606 607 609 608 609 607 606 610 608 611 609 611 608 612 613 610 610 611 612 613 615 614 615 613 612 616 614 617 615 617 614 618 619 616 616 617 618 619 621 620 621 619 618 621 622 620 620 622 623 624 626 625 624 625 627 628 630 629 631 633 632 634 636 635 637 639 638 640 642 641 643 645 644 646 648 647 649 651 650 652 654 653 655 657 656 658 660 659 661 663 662 664 666 665 667 669 668 670 672 671 673 675 674 676 678 677 679 681 680 682 684 683 685 684 686 682 688 687 688 682 683 689 690 687 687 688 689 691 690 692 689 692 690 691 694 693 694 691 692 695 696 693 693 694 695 697 696 698 695 698 696 697 700 699 700 697 698 701 632 699 699 700 701 685 686 677 701 631 632 684 685 683 679 678 676 676 677 686 672 680 681 680 678 679 670 671 674 672 681 671 675 673 664 670 674 675 666 669 665 673 666 664 668 659 667 669 667 665 661 660 658 658 659 668 654 662 663 662 660 661 652 653 656 654 663 653 657 655 646 652 656 657 648 651 647 655 648 646 650 641 649 651 649 647 643 642 640 640 641 650 636 644 645 644 642 643 634 635 637 636 645 635 638 639 629 634 637 638 628 633 630 639 628 629 631 630 633 702 704 703 705 706 704 707 709 708 710 712 711 713 714 711 715 712 710 716 715 717 715 710 717 718 720 719 716 721 715 722 724 723 725 727 726 728 730 729 730 722 731 724 733 732 734 722 723 735 737 736 738 727 724 705 709 706 739 741 740 725 742 720 743 745 744 713 703 714 713 711 712 702 705 704 702 703 713 708 739 707 709 707 706 746 747 739 746 739 708 747 741 739 741 749 748 740 741 748 741 737 735 749 741 735 737 751 750 736 737 750 737 753 752 751 737 752 728 754 737 753 737 754 755 756 728 728 756 754 728 729 757 728 757 755 734 731 722 728 722 730 733 724 722 724 732 738 727 738 726 725 726 742 718 719 758 720 742 719 758 745 759 718 758 759 744 721 743 758 744 745 716 760 721 721 760 743 761 763 762 764 763 765 766 768 767 767 761 762 769 771 770 772 774 773 774 772 769 773 776 775 772 773 775 777 779 778 780 776 773 781 783 782 784 786 785 787 789 788 790 791 789 791 783 789 788 793 792 786 777 794 795 783 784 796 798 797 799 801 800 802 804 803 770 771 768 770 774 769 766 767 762 766 770 768 764 765 796 763 761 765 805 796 806 805 764 796 806 796 797 797 808 807 798 808 797 797 803 804 807 803 797 804 810 809 802 810 804 804 812 811 809 812 804 793 804 813 811 813 804 814 793 815 793 813 815 793 816 792 793 814 816 790 789 787 793 788 789 781 789 783 783 795 782 784 785 795 786 794 785 779 817 778 777 778 794 817 818 800 779 818 817 801 799 780 817 800 801 776 780 819 780 799 819</p>
        </triangles>
      </mesh>
    </geometry>
  </library_geometries>

  <library_visual_scenes>
    <visual_scene id="ID1">
      <node id="ID2">
        <instance_geometry url="#ID3">
          <bind_material>
            <technique_common>
              <instance_material symbol="ID9" target="#ID9"/>
            </technique_common>
          </bind_material>
        </instance_geometry>
      </node>
    </visual_scene>
  </library_visual_scenes>

  <scene>
    <instance_visual_scene url="#ID1"/>
  </scene>

  <library_nodes/>

</COLLADA>
